<svg width="275" height="60" viewBox="0 0 275 60" fill="none" xmlns="http://www.w3.org/2000/svg">
<path d="M24.156 6.88672V21.2936C24.156 24.3153 22.9693 27.2237 20.8259 29.3615C20.8121 29.3753 20.801 29.3864 20.7871 29.4002L10.6861 39.4264C7.40595 42.6829 3.89014 45.6963 0.166364 48.4445L0 48.5661L21.0117 12.3141L24.156 6.88672Z" fill="#FFC107"/>
<path d="M49.1911 48.5661L49.0248 48.4418C45.3038 45.6935 41.788 42.6801 38.5051 39.4237L28.404 29.3974C28.3902 29.3836 28.3791 29.3726 28.3652 29.3588C26.2219 27.2209 25.0352 24.3125 25.0352 21.2908V6.88672L28.1794 12.3141L49.1911 48.5661Z" fill="#27AE60"/>
<path d="M24.1547 38.2584V43.8515C24.1547 44.3956 23.7609 44.8624 23.223 44.9563L0.941406 48.8287C5.35281 45.5723 20.9744 37.2336 20.9744 37.2336C21.3459 37.0486 21.7285 36.8939 22.1195 36.7724C23.1288 36.4603 24.1547 37.206 24.1547 38.2584Z" fill="#FFC107"/>
<path d="M48.2484 48.8284L25.9668 44.956C25.4289 44.8621 25.0352 44.3953 25.0352 43.8512V38.2608C25.0352 37.2085 26.0611 36.4627 27.0703 36.7748C27.4613 36.8963 27.8439 37.0483 28.2127 37.2361C28.2127 37.2333 43.837 45.5719 48.2484 48.8284Z" fill="#27AE60"/>
<path d="M69.6696 45.2214C68.7841 45.2214 68.0758 44.9705 67.5445 44.4687C67.0428 43.9375 66.7919 43.2439 66.7919 42.388V18.4812H58.7344C56.9636 18.4812 56.0781 17.699 56.0781 16.1348C56.0781 14.5705 56.9636 13.7883 58.7344 13.7883H80.5605C82.3313 13.7883 83.2168 14.5705 83.2168 16.1348C83.2168 17.699 82.3313 18.4812 80.5605 18.4812H72.503V42.388C72.503 43.2439 72.2373 43.9375 71.7061 44.4687C71.2043 44.9705 70.5255 45.2214 69.6696 45.2214ZM94.7344 22.9083C95.5017 22.8493 96.1068 23.0116 96.5495 23.3953C96.9922 23.779 97.2136 24.3546 97.2136 25.1219C97.2136 25.9188 97.0217 26.5091 96.6381 26.8928C96.2544 27.2765 95.5608 27.5274 94.5573 27.6454L93.2291 27.7783C91.4878 27.9553 90.2039 28.5456 89.3775 29.5491C88.5806 30.5526 88.1821 31.807 88.1821 33.3122V42.6093C88.1821 43.4652 87.9165 44.1293 87.3852 44.6016C86.854 45.0443 86.1899 45.2656 85.393 45.2656C84.5961 45.2656 83.932 45.0443 83.4008 44.6016C82.899 44.1293 82.6482 43.4652 82.6482 42.6093V25.4761C82.6482 24.6497 82.899 24.0151 83.4008 23.5724C83.932 23.1297 84.5814 22.9083 85.3487 22.9083C86.1161 22.9083 86.7359 23.1297 87.2082 23.5724C87.6804 23.9856 87.9165 24.5907 87.9165 25.3876V27.1584C88.4773 25.8598 89.3037 24.8563 90.3957 24.148C91.5173 23.4396 92.7569 23.0412 94.1146 22.9526L94.7344 22.9083ZM108.895 22.8198C111.906 22.8198 114.134 23.5724 115.58 25.0777C117.056 26.5534 117.794 28.8113 117.794 31.8513V42.6536C117.794 43.4505 117.558 44.085 117.085 44.5573C116.613 45 115.964 45.2214 115.137 45.2214C114.37 45.2214 113.736 44.9852 113.234 44.513C112.762 44.0408 112.525 43.421 112.525 42.6536V41.6796C112.024 42.8307 111.227 43.7309 110.135 44.3802C109.072 45.0295 107.833 45.3542 106.416 45.3542C104.97 45.3542 103.656 45.059 102.476 44.4687C101.295 43.8784 100.365 43.0668 99.6866 42.0338C99.0078 41.0008 98.6683 39.8497 98.6683 38.5806C98.6683 36.9868 99.0668 35.7324 99.8637 34.8175C100.69 33.9025 102.018 33.2384 103.848 32.8252C105.678 32.412 108.202 32.2054 111.419 32.2054H112.525V31.1872C112.525 29.741 112.216 28.6932 111.596 28.0439C110.976 27.365 109.972 27.0256 108.585 27.0256C107.729 27.0256 106.859 27.1584 105.973 27.4241C105.088 27.6602 104.04 28.0144 102.83 28.4866C102.063 28.8703 101.502 29.0621 101.148 29.0621C100.616 29.0621 100.174 28.8703 99.8194 28.4866C99.4947 28.1029 99.3324 27.6012 99.3324 26.9814C99.3324 26.4796 99.4505 26.0516 99.6866 25.6975C99.9522 25.3138 100.38 24.9596 100.97 24.635C102.003 24.0742 103.228 23.6315 104.645 23.3068C106.091 22.9821 107.508 22.8198 108.895 22.8198ZM107.523 41.3697C108.998 41.3697 110.194 40.8827 111.109 39.9087C112.053 38.9052 112.525 37.6214 112.525 36.0571V35.1274H111.729C109.751 35.1274 108.216 35.2159 107.124 35.393C106.032 35.5701 105.25 35.88 104.778 36.3227C104.306 36.7654 104.069 37.3705 104.069 38.1379C104.069 39.0823 104.394 39.8645 105.043 40.4843C105.722 41.0746 106.549 41.3697 107.523 41.3697ZM135.991 22.8198C138.589 22.8198 140.522 23.5577 141.791 25.0334C143.06 26.5091 143.695 28.7375 143.695 31.7184V42.6093C143.695 43.4357 143.444 44.085 142.942 44.5573C142.47 45.0295 141.806 45.2656 140.95 45.2656C140.094 45.2656 139.415 45.0295 138.913 44.5573C138.411 44.085 138.161 43.4357 138.161 42.6093V32.0283C138.161 30.346 137.836 29.1212 137.187 28.3538C136.567 27.5864 135.578 27.2027 134.22 27.2027C132.627 27.2027 131.343 27.7045 130.369 28.708C129.424 29.7115 128.952 31.0544 128.952 32.7367V42.6093C128.952 43.4357 128.701 44.085 128.199 44.5573C127.698 45.0295 127.019 45.2656 126.163 45.2656C125.307 45.2656 124.628 45.0295 124.126 44.5573C123.654 44.085 123.418 43.4357 123.418 42.6093V25.4761C123.418 24.7087 123.669 24.0889 124.171 23.6167C124.672 23.1445 125.351 22.9083 126.207 22.9083C126.975 22.9083 127.594 23.1445 128.067 23.6167C128.568 24.0594 128.819 24.6497 128.819 25.3876V26.5829C129.557 25.3728 130.546 24.4431 131.785 23.7938C133.025 23.1445 134.427 22.8198 135.991 22.8198ZM157.151 45.3542C153.934 45.3542 151.337 44.7196 149.36 43.4505C148.415 42.8897 147.943 42.0928 147.943 41.0598C147.943 40.4695 148.105 39.9973 148.43 39.6431C148.755 39.2594 149.153 39.0676 149.625 39.0676C150.127 39.0676 150.821 39.3037 151.706 39.7759C152.65 40.2186 153.506 40.5581 154.274 40.7942C155.071 41.0303 156.074 41.1483 157.284 41.1483C158.524 41.1483 159.483 40.9417 160.162 40.5285C160.87 40.1153 161.224 39.5398 161.224 38.8019C161.224 38.3002 161.077 37.9017 160.782 37.6066C160.516 37.3115 160.014 37.0458 159.276 36.8097C158.568 36.5441 157.476 36.2489 156 35.9243C153.374 35.393 151.485 34.6404 150.334 33.6664C149.212 32.6924 148.651 31.3495 148.651 29.6377C148.651 28.339 149.035 27.1732 149.802 26.1402C150.57 25.0777 151.617 24.266 152.946 23.7052C154.303 23.1149 155.838 22.8198 157.55 22.8198C158.789 22.8198 159.985 22.9821 161.136 23.3068C162.287 23.6019 163.32 24.0447 164.235 24.635C165.179 25.2252 165.652 26.0074 165.652 26.9814C165.652 27.5716 165.489 28.0734 165.165 28.4866C164.84 28.8703 164.442 29.0621 163.969 29.0621C163.645 29.0621 163.32 29.0031 162.995 28.885C162.7 28.7375 162.316 28.5309 161.844 28.2652C160.988 27.8225 160.25 27.4979 159.631 27.2913C159.011 27.0551 158.243 26.9371 157.329 26.9371C156.236 26.9371 155.366 27.1584 154.716 27.6012C154.097 28.0439 153.787 28.6489 153.787 29.4163C153.787 30.1542 154.111 30.7149 154.761 31.0986C155.41 31.4823 156.664 31.866 158.524 32.2497C160.501 32.6629 162.051 33.1351 163.172 33.6664C164.294 34.1977 165.091 34.8617 165.563 35.6586C166.065 36.4555 166.316 37.4738 166.316 38.7134C166.316 40.7204 165.475 42.3289 163.792 43.539C162.139 44.7491 159.926 45.3542 157.151 45.3542ZM173.548 45.2656C172.751 45.2656 172.087 45.0443 171.555 44.6016C171.054 44.1293 170.803 43.4652 170.803 42.6093V16.179C170.803 15.3231 171.054 14.6738 171.555 14.2311C172.087 13.7883 172.751 13.567 173.548 13.567C174.344 13.567 175.009 13.7883 175.54 14.2311C176.071 14.6738 176.337 15.3231 176.337 16.179V42.6093C176.337 43.4652 176.071 44.1293 175.54 44.6016C175.009 45.0443 174.344 45.2656 173.548 45.2656ZM199.177 39.0676C199.679 39.0676 200.077 39.2594 200.372 39.6431C200.697 40.0268 200.859 40.5433 200.859 41.1926C200.859 42.1076 200.313 42.875 199.221 43.4948C198.218 44.0555 197.081 44.513 195.812 44.8672C194.543 45.1918 193.333 45.3542 192.182 45.3542C188.699 45.3542 185.94 44.3507 183.903 42.3437C181.867 40.3367 180.848 37.5918 180.848 34.1091C180.848 31.8955 181.291 29.9328 182.176 28.221C183.062 26.5091 184.301 25.181 185.895 24.2365C187.519 23.292 189.348 22.8198 191.385 22.8198C193.333 22.8198 195.03 23.2478 196.476 24.1037C197.922 24.9596 199.044 26.1697 199.841 27.734C200.638 29.2983 201.036 31.1429 201.036 33.268C201.036 34.5371 200.475 35.1716 199.354 35.1716H186.294C186.471 37.2082 187.046 38.7134 188.02 39.6874C188.994 40.6318 190.411 41.1041 192.27 41.1041C193.215 41.1041 194.041 40.986 194.75 40.7499C195.488 40.5138 196.314 40.1891 197.229 39.7759C198.114 39.3037 198.764 39.0676 199.177 39.0676ZM191.518 26.7157C190.013 26.7157 188.802 27.188 187.888 28.1324C187.002 29.0769 186.471 30.4346 186.294 32.2054H196.299C196.24 30.405 195.797 29.0474 194.971 28.1324C194.145 27.188 192.994 26.7157 191.518 26.7157ZM218.136 22.8198C220.734 22.8198 222.667 23.5577 223.936 25.0334C225.205 26.5091 225.84 28.7375 225.84 31.7184V42.6093C225.84 43.4357 225.589 44.085 225.087 44.5573C224.615 45.0295 223.951 45.2656 223.095 45.2656C222.239 45.2656 221.56 45.0295 221.058 44.5573C220.556 44.085 220.306 43.4357 220.306 42.6093V32.0283C220.306 30.346 219.981 29.1212 219.332 28.3538C218.712 27.5864 217.723 27.2027 216.365 27.2027C214.772 27.2027 213.488 27.7045 212.514 28.708C211.569 29.7115 211.097 31.0544 211.097 32.7367V42.6093C211.097 43.4357 210.846 44.085 210.344 44.5573C209.843 45.0295 209.164 45.2656 208.308 45.2656C207.452 45.2656 206.773 45.0295 206.271 44.5573C205.799 44.085 205.563 43.4357 205.563 42.6093V25.4761C205.563 24.7087 205.814 24.0889 206.316 23.6167C206.817 23.1445 207.496 22.9083 208.352 22.9083C209.12 22.9083 209.739 23.1445 210.212 23.6167C210.713 24.0594 210.964 24.6497 210.964 25.3876V26.5829C211.702 25.3728 212.691 24.4431 213.93 23.7938C215.17 23.1445 216.572 22.8198 218.136 22.8198ZM239.296 45.3542C236.079 45.3542 233.482 44.7196 231.505 43.4505C230.56 42.8897 230.088 42.0928 230.088 41.0598C230.088 40.4695 230.25 39.9973 230.575 39.6431C230.9 39.2594 231.298 39.0676 231.77 39.0676C232.272 39.0676 232.966 39.3037 233.851 39.7759C234.796 40.2186 235.651 40.5581 236.419 40.7942C237.216 41.0303 238.219 41.1483 239.429 41.1483C240.669 41.1483 241.628 40.9417 242.307 40.5285C243.015 40.1153 243.369 39.5398 243.369 38.8019C243.369 38.3002 243.222 37.9017 242.927 37.6066C242.661 37.3115 242.159 37.0458 241.422 36.8097C240.713 36.5441 239.621 36.2489 238.145 35.9243C235.519 35.393 233.63 34.6404 232.479 33.6664C231.357 32.6924 230.796 31.3495 230.796 29.6377C230.796 28.339 231.18 27.1732 231.947 26.1402C232.715 25.0777 233.762 24.266 235.091 23.7052C236.448 23.1149 237.983 22.8198 239.695 22.8198C240.935 22.8198 242.13 22.9821 243.281 23.3068C244.432 23.6019 245.465 24.0447 246.38 24.635C247.324 25.2252 247.797 26.0074 247.797 26.9814C247.797 27.5716 247.634 28.0734 247.31 28.4866C246.985 28.8703 246.587 29.0621 246.114 29.0621C245.79 29.0621 245.465 29.0031 245.14 28.885C244.845 28.7375 244.462 28.5309 243.989 28.2652C243.133 27.8225 242.396 27.4979 241.776 27.2913C241.156 27.0551 240.389 26.9371 239.474 26.9371C238.382 26.9371 237.511 27.1584 236.862 27.6012C236.242 28.0439 235.932 28.6489 235.932 29.4163C235.932 30.1542 236.256 30.7149 236.906 31.0986C237.555 31.4823 238.809 31.866 240.669 32.2497C242.646 32.6629 244.196 33.1351 245.317 33.6664C246.439 34.1977 247.236 34.8617 247.708 35.6586C248.21 36.4555 248.461 37.4738 248.461 38.7134C248.461 40.7204 247.62 42.3289 245.937 43.539C244.284 44.7491 242.071 45.3542 239.296 45.3542ZM270.081 39.0676C270.583 39.0676 270.981 39.2594 271.276 39.6431C271.601 40.0268 271.763 40.5433 271.763 41.1926C271.763 42.1076 271.217 42.875 270.125 43.4948C269.122 44.0555 267.985 44.513 266.716 44.8672C265.447 45.1918 264.237 45.3542 263.086 45.3542C259.603 45.3542 256.844 44.3507 254.807 42.3437C252.771 40.3367 251.752 37.5918 251.752 34.1091C251.752 31.8955 252.195 29.9328 253.081 28.221C253.966 26.5091 255.206 25.181 256.799 24.2365C258.423 23.292 260.253 22.8198 262.289 22.8198C264.237 22.8198 265.934 23.2478 267.38 24.1037C268.827 24.9596 269.948 26.1697 270.745 27.734C271.542 29.2983 271.94 31.1429 271.94 33.268C271.94 34.5371 271.38 35.1716 270.258 35.1716H257.198C257.375 37.2082 257.95 38.7134 258.924 39.6874C259.898 40.6318 261.315 41.1041 263.175 41.1041C264.119 41.1041 264.945 40.986 265.654 40.7499C266.392 40.5138 267.218 40.1891 268.133 39.7759C269.018 39.3037 269.668 39.0676 270.081 39.0676ZM262.422 26.7157C260.917 26.7157 259.707 27.188 258.792 28.1324C257.906 29.0769 257.375 30.4346 257.198 32.2054H267.203C267.144 30.405 266.702 29.0474 265.875 28.1324C265.049 27.188 263.898 26.7157 262.422 26.7157Z" fill="white"/>
</svg>
